<?xml version="1.0" standalone="no"?>
<!DOCTYPE svg PUBLIC "-//W3C//DTD SVG 20010904//EN"
 "http://www.w3.org/TR/2001/REC-SVG-20010904/DTD/svg10.dtd">
<svg version="1.0" xmlns="http://www.w3.org/2000/svg"
 width="256.000000pt" height="256.000000pt" viewBox="0 0 256.000000 256.000000"
 preserveAspectRatio="xMidYMid meet">
<metadata>
Created by potrace 1.14, written by Peter Selinger 2001-2017
</metadata>
<g transform="translate(0.000000,256.000000) scale(0.100000,-0.100000)"
fill="#000000" stroke="none">
<path d="M920 2483 c-30 -11 -92 -80 -126 -139 -33 -58 -67 -172 -78 -259 -3
-22 -5 -41 -6 -41 0 -1 -19 2 -42 8 -49 10 -142 9 -175 -3 -22 -8 -23 -6 -24
44 -2 148 -21 240 -63 306 -31 48 -55 67 -93 76 -78 16 -117 -102 -117 -355 0
-97 2 -110 31 -171 20 -44 28 -71 22 -80 -22 -34 -31 -105 -33 -244 l-2 -150
-42 -84 c-23 -47 -42 -93 -42 -103 0 -10 -16 -35 -36 -55 -93 -96 -117 -242
-60 -356 65 -127 192 -201 356 -206 57 -1 91 5 198 35 16 5 22 2 22 -9 0 -17
36 -102 59 -136 8 -13 16 -34 17 -45 0 -12 4 -66 7 -121 4 -55 10 -147 13
-205 6 -106 13 -128 34 -115 12 8 11 74 -6 332 l-5 82 58 -38 c60 -39 151 -81
176 -81 13 0 15 -23 14 -140 0 -137 7 -171 32 -156 7 5 11 56 11 145 l0 137
46 -2 c25 -1 47 -4 49 -6 2 -2 6 -25 9 -53 17 -136 30 -201 43 -215 24 -26 30
5 16 83 -7 39 -16 120 -19 179 -6 95 -5 113 15 165 23 62 74 124 123 149 42
22 91 11 138 -32 79 -72 85 -137 36 -389 -2 -11 -10 -48 -16 -83 -13 -62 -6
-93 18 -79 5 4 22 73 37 154 16 81 29 149 31 151 1 2 14 5 30 7 92 15 126 22
187 36 26 6 49 10 51 8 1 -2 15 -42 30 -89 30 -93 100 -243 123 -261 9 -8 17
-9 23 -3 7 7 -2 34 -24 77 -42 81 -92 209 -101 258 -6 34 -5 37 27 50 18 7 54
33 80 57 33 30 49 40 52 31 25 -80 44 -113 87 -154 78 -74 96 -103 119 -200
26 -105 32 -120 51 -120 19 0 18 16 -9 124 -29 118 -30 120 -117 211 -66 70
-74 82 -88 143 -14 64 -14 70 5 120 48 125 61 309 30 432 -11 48 -48 137 -90
218 -2 4 10 7 27 7 84 0 188 38 237 87 67 67 101 220 74 334 -25 106 -70 168
-187 258 -24 18 -43 39 -43 47 0 17 4 17 55 3 141 -39 273 -146 315 -254 42
-111 31 -266 -28 -382 -15 -29 -14 -37 7 -125 31 -128 36 -168 35 -278 0 -86
-5 -106 -44 -215 -39 -107 -43 -130 -44 -210 0 -76 8 -186 19 -245 2 -8 8 -51
15 -95 6 -44 14 -93 17 -110 2 -16 6 -36 7 -43 3 -19 23 -35 35 -28 5 4 8 14
6 24 -1 9 -6 37 -9 62 -3 25 -8 56 -10 70 -24 146 -33 212 -42 325 -6 78 -4
86 41 220 43 126 48 151 51 245 2 58 -1 123 -6 145 -5 22 -12 56 -15 75 -3 19
-12 58 -21 87 -14 50 -13 55 11 114 88 217 37 439 -128 561 -53 39 -153 85
-217 100 -44 10 -52 9 -70 -7 -34 -31 -26 -69 22 -107 139 -108 166 -144 188
-251 17 -82 7 -168 -27 -236 -42 -84 -97 -114 -234 -127 -61 -6 -70 -4 -100
18 -47 35 -198 78 -394 113 -196 35 -272 37 -329 9 -16 -8 -30 -14 -31 -14 -1
0 -26 39 -55 88 -29 48 -62 97 -72 109 -20 21 -20 23 -2 120 34 178 17 521
-31 613 -29 55 -64 72 -115 53z m-11 -145 c-67 -197 -81 -318 -45 -386 19 -37
98 -92 132 -92 33 0 36 -12 21 -79 l-14 -60 59 -88 c137 -205 157 -295 109
-483 -62 -237 -165 -377 -366 -495 -51 -30 -97 -55 -103 -55 -11 0 -45 69 -55
111 -5 21 1 32 32 61 22 20 52 55 68 79 15 24 31 45 35 47 4 2 36 25 71 52 72
54 101 97 122 179 20 73 19 93 -1 89 -11 -2 -23 -24 -34 -63 -23 -84 -43 -118
-93 -159 -24 -20 -47 -36 -50 -36 -3 0 -4 19 -3 43 5 75 -43 190 -98 236 -9 8
-16 17 -16 20 0 4 28 31 63 59 117 97 130 109 124 126 -8 21 -18 20 -47 -7
-45 -40 -315 -263 -329 -272 -14 -8 -91 -25 -91 -20 0 1 7 19 16 40 27 66 0
108 -77 118 -44 5 -98 -18 -109 -47 -4 -12 -2 -39 5 -63 l13 -42 -23 15 c-66
43 -70 98 -14 213 23 49 43 107 47 139 7 52 9 56 39 64 83 22 77 135 -8 153
-39 9 -38 24 10 148 52 136 54 143 53 207 -1 58 -34 224 -58 293 -17 47 -9 61
26 44 64 -32 102 -141 105 -305 2 -63 7 -118 13 -124 7 -7 17 -6 31 2 36 19
150 23 208 7 29 -7 56 -11 62 -8 5 4 12 29 15 56 21 178 80 316 159 373 18 12
32 22 33 22 1 0 -16 -51 -37 -112z m-231 -1140 c122 -127 90 -330 -69 -427
-229 -142 -545 -17 -565 223 -5 62 20 141 61 191 24 29 25 29 39 10 20 -26 20
-38 -3 -77 -51 -89 -20 -214 68 -277 23 -17 31 -18 40 -8 8 10 0 24 -33 59
-63 67 -76 143 -37 216 14 26 10 25 52 9 21 -9 70 -13 130 -12 85 1 104 5 154
30 l57 29 24 -29 c53 -66 56 -147 9 -214 -29 -42 -105 -89 -154 -94 -41 -5
-62 -24 -41 -37 34 -22 145 19 200 73 87 85 92 220 10 305 -21 22 -21 24 -4
43 23 25 25 25 62 -13z m1034 -75 c-1 -45 1 -84 5 -86 5 -3 35 -9 68 -12 89
-11 90 -11 89 -23 -1 -7 -2 -28 -2 -48 l-2 -36 -85 7 c-82 6 -84 6 -89 -17 -5
-21 -13 -92 -15 -128 -1 -12 -12 -14 -50 -12 l-49 4 4 56 c3 32 7 63 9 70 10
28 -14 52 -53 52 -20 0 -54 3 -75 7 l-38 6 4 46 4 46 39 -1 c21 -1 55 -3 74
-4 19 -1 40 -2 47 -1 11 1 26 80 26 137 0 24 2 25 46 22 l46 -4 -3 -81z"/>
<path d="M601 1714 c-82 -69 16 -177 113 -125 53 29 49 113 -8 139 -41 18 -71
15 -105 -14z"/>
<path d="M443 1384 c-9 -23 13 -40 32 -24 12 10 13 16 4 26 -15 18 -28 18 -36
-2z"/>
<path d="M537 1363 c-11 -11 -8 -31 6 -36 21 -8 39 7 31 26 -6 17 -25 22 -37
10z"/>
<path d="M466 1275 c-6 -17 17 -31 34 -20 5 3 10 13 10 21 0 19 -36 18 -44 -1z"/>
</g>
</svg>
